<?xml version="1.0" encoding="UTF-8"?> <svg xmlns="http://www.w3.org/2000/svg" width="56" height="47.047" viewBox="0 0 56 47.047"> <g id="Сгруппировать_1" data-name="Сгруппировать 1" transform="translate(-21 -18.953)"> <rect id="Прямоугольник_1" data-name="Прямоугольник 1" width="56" height="26" rx="7" transform="translate(21 40)" fill="#516eff"></rect> <path id="Контур_1" data-name="Контур 1" d="M3.271,0V-13.3H.85v-2.025H3.271v-1.572A5.217,5.217,0,0,1,4.588-20.7a4.975,4.975,0,0,1,3.724-1.345,6.917,6.917,0,0,1,1.8.239L9.969-19.7a7.524,7.524,0,0,0-1.416-.127,2.556,2.556,0,0,0-1.968.746,3.025,3.025,0,0,0-.694,2.138v1.619H9.162V-13.3H5.891V0ZM19.456-12.971a7.85,7.85,0,0,0-1.289-.1,3.452,3.452,0,0,0-3.5,2.195V0H12.05V-15.321H14.6l.042,1.77A4.079,4.079,0,0,1,18.295-15.6a2.676,2.676,0,0,1,1.161.2ZM27.952.283a6.694,6.694,0,0,1-5.069-2.046,7.594,7.594,0,0,1-1.954-5.473v-.481a9.194,9.194,0,0,1,.871-4.071,6.793,6.793,0,0,1,2.436-2.8A6.123,6.123,0,0,1,27.626-15.6a5.738,5.738,0,0,1,4.645,1.968A8.522,8.522,0,0,1,33.928-8v1.09H23.548a5.446,5.446,0,0,0,1.324,3.66,4.162,4.162,0,0,0,3.221,1.395,4.563,4.563,0,0,0,2.351-.566,5.906,5.906,0,0,0,1.685-1.5l1.6,1.246A6.434,6.434,0,0,1,27.952.283Zm-.326-13.735A3.494,3.494,0,0,0,24.964-12.3a5.609,5.609,0,0,0-1.331,3.236h7.675v-.2a4.99,4.99,0,0,0-1.076-3.094A3.29,3.29,0,0,0,27.626-13.452ZM43.316.283a6.694,6.694,0,0,1-5.069-2.046,7.594,7.594,0,0,1-1.954-5.473v-.481a9.194,9.194,0,0,1,.871-4.071,6.793,6.793,0,0,1,2.436-2.8A6.123,6.123,0,0,1,42.99-15.6a5.738,5.738,0,0,1,4.645,1.968A8.522,8.522,0,0,1,49.292-8v1.09H38.912a5.446,5.446,0,0,0,1.324,3.66,4.162,4.162,0,0,0,3.221,1.395,4.563,4.563,0,0,0,2.351-.566,5.906,5.906,0,0,0,1.685-1.5l1.6,1.246A6.434,6.434,0,0,1,43.316.283ZM42.99-13.452A3.494,3.494,0,0,0,40.328-12.3,5.609,5.609,0,0,0,39-9.062h7.675v-.2A4.99,4.99,0,0,0,45.6-12.355,3.29,3.29,0,0,0,42.99-13.452Z" transform="translate(23 41)" fill="#516eff"></path> <path id="Контур_2" data-name="Контур 2" d="M13.078-8.873H4.759v6.8h9.664V0H2.228V-19.2H14.291v2.07H4.759v6.183h8.319ZM32.326,0H29.782L20.118-14.792V0H17.574V-19.2h2.544l9.69,14.858V-19.2h2.518ZM42.478-8.556a11.9,11.9,0,0,1-4.74-2.3,4.4,4.4,0,0,1-1.483-3.368,4.643,4.643,0,0,1,1.813-3.751,7.2,7.2,0,0,1,4.713-1.483,7.864,7.864,0,0,1,3.527.765,5.8,5.8,0,0,1,2.4,2.109,5.394,5.394,0,0,1,.85,2.94H47.013a3.51,3.51,0,0,0-1.107-2.745,4.5,4.5,0,0,0-3.125-1,4.61,4.61,0,0,0-2.92.826,2.754,2.754,0,0,0-1.048,2.291,2.477,2.477,0,0,0,1,1.988A9.763,9.763,0,0,0,43.2-10.8,15.721,15.721,0,0,1,46.94-9.314a5.682,5.682,0,0,1,2,1.892A4.829,4.829,0,0,1,49.6-4.878,4.485,4.485,0,0,1,47.777-1.14a7.757,7.757,0,0,1-4.865,1.4,9.023,9.023,0,0,1-3.691-.758,6.212,6.212,0,0,1-2.643-2.076,5.067,5.067,0,0,1-.929-2.993h2.544a3.306,3.306,0,0,0,1.285,2.749,5.412,5.412,0,0,0,3.434,1.009,4.975,4.975,0,0,0,3.072-.817,2.655,2.655,0,0,0,1.068-2.228,2.606,2.606,0,0,0-.989-2.182A11.4,11.4,0,0,0,42.478-8.556Z" transform="translate(23 62)" fill="#fff"></path> </g> </svg> 